<?xml version="1.0" encoding="UTF-8"?>
<svg version="1.1" xmlns="http://www.w3.org/2000/svg" width="666" height="375">
<path d="M0 0 C1.13887665 -0.00807175 2.2777533 -0.01614349 3.45114136 -0.02445984 C5.86340839 -0.03826216 8.27569464 -0.04900145 10.68798828 -0.05688477 C13.11578233 -0.06832295 15.54355289 -0.08864241 17.97119141 -0.1184082 C39.12208379 -0.37719219 57.95510569 2.48666494 78.2421875 8.23828125 C80.17966789 8.73835725 82.11716641 9.23836298 84.0546875 9.73828125 C89.3013791 11.18324639 94.25481583 13.06921724 99.2421875 15.23828125 C100.21671875 15.65851562 101.19125 16.07875 102.1953125 16.51171875 C111.20615287 20.5288668 119.72148404 25.28897709 128.2421875 30.23828125 C129.19480469 30.78742187 130.14742188 31.3365625 131.12890625 31.90234375 C136.99718636 35.34777038 142.98751461 38.90038108 148.2421875 43.23828125 C148.2421875 43.89828125 148.2421875 44.55828125 148.2421875 45.23828125 C149.0053125 45.50640625 149.7684375 45.77453125 150.5546875 46.05078125 C153.13207368 47.1896263 154.51173614 48.05244796 156.2421875 50.23828125 C156.2421875 50.89828125 156.2421875 51.55828125 156.2421875 52.23828125 C156.9228125 52.44453125 157.6034375 52.65078125 158.3046875 52.86328125 C166.71820089 56.80152156 173.07663969 64.89973742 178.9921875 71.86328125 C179.51514404 72.47719727 180.03810059 73.09111328 180.5769043 73.72363281 C199.78900147 96.33576367 199.78900147 96.33576367 203.2421875 105.23828125 C203.8609375 106.16640625 204.4796875 107.09453125 205.1171875 108.05078125 C206.66334695 110.37002042 207.90954192 112.46180232 209.12109375 114.9375 C210.48956899 117.71355885 211.86973967 120.48183649 213.27734375 123.23828125 C213.953125 124.57161458 214.62890625 125.90494792 215.3046875 127.23828125 C215.64306641 127.89828125 215.98144531 128.55828125 216.33007812 129.23828125 C219.8997398 136.30855893 222.4649061 143.5826323 224.6796875 151.17578125 C224.89069092 151.89725342 225.10169434 152.61872559 225.3190918 153.36206055 C226.86207765 158.72742998 228.25887362 164.12061987 229.5546875 169.55078125 C229.72605225 170.26161865 229.89741699 170.97245605 230.07397461 171.70483398 C230.84076974 175.01031574 231.2421875 177.81999281 231.2421875 181.23828125 C226.56608299 180.39529515 224.42993419 177.5010413 221.4296875 174.05078125 C217.75038685 169.93069916 214.11831886 166.10539987 209.8203125 162.62109375 C206.0422079 159.31057635 202.89130229 155.2888821 199.75 151.3828125 C192.92965925 143.03250342 185.23766333 139.0434555 175.2421875 135.23828125 C174.50379639 134.92020508 173.76540527 134.60212891 173.00463867 134.27441406 C169.77552735 133.0632476 166.58008791 132.32074084 163.2109375 131.58203125 C162.53857056 131.43423218 161.86620361 131.28643311 161.17346191 131.13415527 C159.75184525 130.82283495 158.32975453 130.51367237 156.90722656 130.20654297 C154.77528722 129.74544017 152.64541331 129.27561285 150.515625 128.8046875 C143.01730816 127.16347397 135.54962737 125.73147141 127.93920898 124.68701172 C121.69054681 123.64735923 116.18824901 121.24223581 111.2421875 117.23828125 C110.56869589 115.5743608 109.9012716 113.90796097 109.2421875 112.23828125 C106.8991066 111.11742813 106.8991066 111.11742813 104.2421875 110.23828125 C103.5409375 109.61953125 102.8396875 109.00078125 102.1171875 108.36328125 C94.95392993 103.06869957 85.9725096 101.66209096 77.40234375 99.96484375 C74.81777943 99.37061759 72.78113177 98.71831971 70.4296875 97.55078125 C64.94939828 95.29419157 60.7181366 95.26367198 55.17578125 97.4453125 C50.03945994 99.93469522 45.66368218 102.63108446 41.2421875 106.23828125 C32.28414229 112.2156531 22.32987613 117.48231946 12.1796875 121.11328125 C6.5013355 123.25801653 1.81246885 126.7793882 -3.0703125 130.3125 C-7.65425051 133.5972114 -10.21198091 133.32773015 -15.7578125 133.23828125 C-13.78034647 133.96908391 -11.77708761 134.63249872 -9.7578125 135.23828125 C-9.0978125 134.90828125 -8.4378125 134.57828125 -7.7578125 134.23828125 C-7.7578125 134.89828125 -7.7578125 135.55828125 -7.7578125 136.23828125 C-7.21366699 136.34897949 -6.66952148 136.45967773 -6.10888672 136.57373047 C-3.61606683 137.08310744 -1.124449 137.59814819 1.3671875 138.11328125 C2.223125 138.28730469 3.0790625 138.46132812 3.9609375 138.640625 C17.49597586 141.45174835 27.61121605 146.58622572 36.5 157.27734375 C38.7626114 159.82404985 41.28480617 161.90917682 43.95703125 164.01171875 C44.38113281 164.41648438 44.80523437 164.82125 45.2421875 165.23828125 C45.2421875 165.89828125 45.2421875 166.55828125 45.2421875 167.23828125 C45.9228125 167.50640625 46.6034375 167.77453125 47.3046875 168.05078125 C49.33871037 168.87304581 51.35904221 169.72969732 53.3671875 170.61328125 C56.4471018 171.92845163 59.55088717 173.16888445 62.6796875 174.36328125 C63.54464844 174.69585937 64.40960938 175.0284375 65.30078125 175.37109375 C68.36288244 176.36833406 68.36288244 176.36833406 72.15234375 176.6640625 C76.27398379 177.12088854 79.50248628 178.4684946 83.2421875 180.30078125 C83.88027344 180.61241211 84.51835937 180.92404297 85.17578125 181.24511719 C86.52182114 181.90436187 87.86555273 182.56833879 89.20703125 183.23681641 C91.20560112 184.22027773 93.21949517 185.16107509 95.2421875 186.09375 C104.51646336 190.44340122 112.52311594 195.7512745 120.60986328 202.01879883 C122.18961535 203.19900547 123.84083426 204.28162883 125.4921875 205.359375 C127.88043554 206.99111833 129.38154489 208.29228978 131.1171875 210.55078125 C142.16124705 223.89450359 157.6504833 230.65861708 173.2421875 237.23828125 C173.2421875 238.22828125 173.2421875 239.21828125 173.2421875 240.23828125 C169.31083472 242.14981966 166.96819549 242.35762834 162.70703125 241.48046875 C161.64935547 241.26648438 160.59167969 241.0525 159.50195312 240.83203125 C158.40560547 240.59484375 157.30925781 240.35765625 156.1796875 240.11328125 C155.11041016 239.89929688 154.04113281 239.6853125 152.93945312 239.46484375 C146.45296511 238.11659488 140.28234746 236.321273 134.02612305 234.15283203 C130.12936516 232.87270794 126.19798691 232.03432952 122.1796875 231.23828125 C116.0560959 229.96063269 110.33803547 228.34300242 104.50390625 226.046875 C101.4685619 224.96170008 98.43243904 224.62111143 95.2421875 224.23828125 C93.5699545 223.58570252 91.90291599 222.91960576 90.2421875 222.23828125 C82.37613102 220.40896579 74.66137427 221.1115352 66.7421875 222.23828125 C52.62399433 224.21255575 43.90330667 223.20391354 32.11328125 214.859375 C31.49582031 214.32441406 30.87835938 213.78945312 30.2421875 213.23828125 C30.2421875 212.57828125 30.2421875 211.91828125 30.2421875 211.23828125 C29.6853125 211.17640625 29.1284375 211.11453125 28.5546875 211.05078125 C26.2421875 210.23828125 26.2421875 210.23828125 23.9296875 207.80078125 C18.89103286 202.99648264 13.11548491 202.93564593 6.4765625 203.02734375 C3.33698609 203.23209873 0.27867829 203.61521664 -2.83300781 204.06176758 C-15.50444229 205.87050794 -22.8381298 203.21513358 -33.7578125 196.23828125 C-35.45701943 194.60480295 -37.12934761 192.94229348 -38.7578125 191.23828125 C-46.00046768 186.52213369 -52.11725235 186.47809794 -60.65625 187.62890625 C-71.98041984 190.04886583 -83.19281409 195.70102377 -92.1640625 203 C-94.49855695 204.81381064 -97.09906713 205.96670738 -99.7578125 207.23828125 C-101.7643563 208.56174631 -103.76409425 209.89557304 -105.7578125 211.23828125 C-108.82004268 213.07295075 -111.90471954 214.83418458 -115.1328125 216.36328125 C-116.94838159 217.13984159 -116.94838159 217.13984159 -117.7578125 219.23828125 C-126.51125001 224.43729262 -140.85546207 232.16941091 -151.27734375 230.94140625 C-153.84959358 230.21226457 -156.18195428 229.24087384 -158.6328125 228.17578125 C-172.22671831 223.2963793 -184.8743011 227.16805064 -198.25390625 230.828125 C-202.7656476 232.04560368 -207.10813571 232.80046901 -211.7578125 233.23828125 C-212.0878125 232.24828125 -212.4178125 231.25828125 -212.7578125 230.23828125 C-211.83203125 228.4140625 -211.83203125 228.4140625 -210.4453125 226.55078125 C-209.77048828 225.61685547 -209.77048828 225.61685547 -209.08203125 224.6640625 C-208.64503906 224.19355469 -208.20804687 223.72304687 -207.7578125 223.23828125 C-207.0978125 223.23828125 -206.4378125 223.23828125 -205.7578125 223.23828125 C-204.38442475 219.28979148 -203.70986083 216.53475243 -203.86328125 212.38671875 C-204.44597076 185.58300122 -199.37947393 156.91823741 -186.67578125 133.06640625 C-185.61808608 130.96001757 -184.78687564 128.81483882 -183.9453125 126.61328125 C-180.16649933 116.94131896 -175.52630512 106.96382732 -169.1328125 98.73828125 C-166.81529201 95.70192686 -164.62382507 92.60149718 -162.47802734 89.44140625 C-157.1868396 81.65749109 -151.40709852 74.88756727 -144.7578125 68.23828125 C-142.99199042 66.14011624 -141.23502798 64.03707718 -139.50390625 61.91015625 C-137.55561308 60.04467644 -136.3314793 59.80350018 -133.7578125 59.23828125 C-133.5103125 58.51640625 -133.2628125 57.79453125 -133.0078125 57.05078125 C-131.09250362 52.74133628 -127.55670395 50.87452264 -123.7578125 48.23828125 C-122.50345406 47.30662083 -121.253421 46.36910819 -120.0078125 45.42578125 C-119.35039062 44.9359375 -118.69296875 44.44609375 -118.015625 43.94140625 C-116.31071077 42.65534638 -114.62045618 41.34982008 -112.9375 40.03515625 C-107.66823779 35.96529132 -102.61399853 32.4111348 -96.57421875 29.609375 C-93.64586197 28.18378106 -90.84353285 26.61252187 -88.02026367 24.99169922 C-61.62749361 9.8435721 -30.58937901 0.20938334 0 0 Z M-60.7578125 122.23828125 C-59.45457031 122.31175781 -59.45457031 122.31175781 -58.125 122.38671875 C-56.39636719 122.49886719 -56.39636719 122.49886719 -54.6328125 122.61328125 C-53.49585938 122.68289062 -52.35890625 122.7525 -51.1875 122.82421875 C-47.80387634 123.23272001 -44.94168809 124.04795694 -41.7578125 125.23828125 C-41.4278125 124.57828125 -41.0978125 123.91828125 -40.7578125 123.23828125 C-47.70829709 120.5904776 -53.82093883 118.46137173 -60.7578125 122.23828125 Z M-67.7578125 122.23828125 C-67.7578125 122.89828125 -67.7578125 123.55828125 -67.7578125 124.23828125 C-67.0978125 123.90828125 -66.4378125 123.57828125 -65.7578125 123.23828125 C-66.4178125 122.90828125 -67.0778125 122.57828125 -67.7578125 122.23828125 Z M-62.7578125 121.23828125 C-63.7478125 121.89828125 -64.7378125 122.55828125 -65.7578125 123.23828125 C-64.4378125 123.23828125 -63.1178125 123.23828125 -61.7578125 123.23828125 C-62.0878125 122.57828125 -62.4178125 121.91828125 -62.7578125 121.23828125 Z M-39.7578125 125.23828125 C-36.6323166 127.88293163 -33.66992983 129.0824284 -29.7578125 130.23828125 C-29.4278125 129.57828125 -29.0978125 128.91828125 -28.7578125 128.23828125 C-29.8303125 127.74328125 -30.9028125 127.24828125 -32.0078125 126.73828125 C-32.61109375 126.45984375 -33.214375 126.18140625 -33.8359375 125.89453125 C-36.05024086 125.02285201 -36.05024086 125.02285201 -39.7578125 125.23828125 Z M-27.7578125 129.23828125 C-28.0878125 129.89828125 -28.4178125 130.55828125 -28.7578125 131.23828125 C-27.7678125 130.90828125 -26.7778125 130.57828125 -25.7578125 130.23828125 C-26.4178125 129.90828125 -27.0778125 129.57828125 -27.7578125 129.23828125 Z M-24.7578125 130.23828125 C-24.4278125 130.89828125 -24.0978125 131.55828125 -23.7578125 132.23828125 C-23.4278125 131.57828125 -23.0978125 130.91828125 -22.7578125 130.23828125 C-23.4178125 130.23828125 -24.0778125 130.23828125 -24.7578125 130.23828125 Z M-88.7578125 132.23828125 C-87.7578125 134.23828125 -87.7578125 134.23828125 -87.7578125 134.23828125 Z M-92.7578125 134.23828125 C-91.7578125 136.23828125 -91.7578125 136.23828125 -91.7578125 136.23828125 Z M-94.7578125 136.23828125 C-95.0878125 136.89828125 -95.4178125 137.55828125 -95.7578125 138.23828125 C-95.0978125 138.23828125 -94.4378125 138.23828125 -93.7578125 138.23828125 C-94.0878125 137.57828125 -94.4178125 136.91828125 -94.7578125 136.23828125 Z M-115.7578125 148.23828125 C-115.7578125 151.23828125 -115.7578125 151.23828125 -115.7578125 151.23828125 Z M-159.7578125 179.23828125 C-158.7578125 181.23828125 -158.7578125 181.23828125 -158.7578125 181.23828125 Z " fill="#4ABAA8" transform="translate(321.7578125,-0.23828125)"/>
<path d="M0 0 C1.45962158 -0.00676758 1.45962158 -0.00676758 2.94873047 -0.01367188 C10.81220415 0.1685639 16.18195746 2.00361438 22.8203125 6.09375 C25.56443992 7.95575929 25.56443992 7.95575929 29.5 7.625 C29.83 8.285 30.16 8.945 30.5 9.625 C34.9661428 11.20128569 38.78105004 11.83949773 43.5 11.625 C44.49 11.625 45.48 11.625 46.5 11.625 C46.83 12.285 47.16 12.945 47.5 13.625 C49.32832822 14.24707851 49.32832822 14.24707851 51.54296875 14.625 C52.36990234 14.79 53.19683594 14.955 54.04882812 15.125 C54.91958984 15.29 55.79035156 15.455 56.6875 15.625 C71.20661859 18.43869747 82.15626757 23.11566053 91.7578125 34.6640625 C94.0204239 37.2107686 96.54261867 39.29589557 99.21484375 41.3984375 C99.63894531 41.80320313 100.06304687 42.20796875 100.5 42.625 C100.5 43.285 100.5 43.945 100.5 44.625 C101.180625 44.893125 101.86125 45.16125 102.5625 45.4375 C104.59652287 46.25976456 106.61685471 47.11641607 108.625 48 C111.7049143 49.31517038 114.80869967 50.5556032 117.9375 51.75 C118.80246094 52.08257812 119.66742188 52.41515625 120.55859375 52.7578125 C123.62069494 53.75505281 123.62069494 53.75505281 127.41015625 54.05078125 C131.53179629 54.50760729 134.76029878 55.85521335 138.5 57.6875 C139.13808594 57.99913086 139.77617187 58.31076172 140.43359375 58.63183594 C141.77963364 59.29108062 143.12336523 59.95505754 144.46484375 60.62353516 C146.46341362 61.60699648 148.47730767 62.54779384 150.5 63.48046875 C159.77427586 67.83011997 167.78092844 73.13799325 175.86767578 79.40551758 C177.44742785 80.58572422 179.09864676 81.66834758 180.75 82.74609375 C183.13824804 84.37783708 184.63935739 85.67900853 186.375 87.9375 C197.41905955 101.28122234 212.9082958 108.04533583 228.5 114.625 C228.5 115.615 228.5 116.605 228.5 117.625 C224.56864722 119.53653841 222.22600799 119.74434709 217.96484375 118.8671875 C216.90716797 118.65320313 215.84949219 118.43921875 214.75976562 118.21875 C213.66341797 117.9815625 212.56707031 117.744375 211.4375 117.5 C210.36822266 117.28601563 209.29894531 117.07203125 208.19726562 116.8515625 C201.71077761 115.50331363 195.54015996 113.70799175 189.28393555 111.53955078 C185.38717766 110.25942669 181.45579941 109.42104827 177.4375 108.625 C171.3139084 107.34735144 165.59584797 105.72972117 159.76171875 103.43359375 C156.7263744 102.34841883 153.69025154 102.00783018 150.5 101.625 C148.827767 100.97242127 147.16072849 100.30632451 145.5 99.625 C137.63394352 97.79568454 129.91918677 98.49825395 122 99.625 C107.88180683 101.5992745 99.16111917 100.59063229 87.37109375 92.24609375 C86.44490234 91.44365234 86.44490234 91.44365234 85.5 90.625 C85.5 89.965 85.5 89.305 85.5 88.625 C84.943125 88.563125 84.38625 88.50125 83.8125 88.4375 C81.5 87.625 81.5 87.625 79.1875 85.1875 C74.14884536 80.38320139 68.37329741 80.32236468 61.734375 80.4140625 C58.59479859 80.61881748 55.53649079 81.00193539 52.42480469 81.44848633 C39.75337021 83.25722669 32.4196827 80.60185233 21.5 73.625 C19.80079307 71.9915217 18.12846489 70.32901223 16.5 68.625 C9.25734482 63.90885244 3.14056015 63.86481669 -5.3984375 65.015625 C-16.72260734 67.43558458 -27.93500159 73.08774252 -36.90625 80.38671875 C-39.24074445 82.20052939 -41.84125463 83.35342613 -44.5 84.625 C-46.5065438 85.94846506 -48.50628175 87.28229179 -50.5 88.625 C-53.56223018 90.4596695 -56.64690704 92.22090333 -59.875 93.75 C-61.69056909 94.52656034 -61.69056909 94.52656034 -62.5 96.625 C-71.25343751 101.82401137 -85.59764957 109.55612966 -96.01953125 108.328125 C-98.59178108 107.59898332 -100.92414178 106.62759259 -103.375 105.5625 C-116.96890581 100.68309805 -129.6164886 104.55476939 -142.99609375 108.21484375 C-147.5078351 109.43232243 -151.85032321 110.18718776 -156.5 110.625 C-156.83 109.635 -157.16 108.645 -157.5 107.625 C-156.57421875 105.80078125 -156.57421875 105.80078125 -155.1875 103.9375 C-154.51267578 103.00357422 -154.51267578 103.00357422 -153.82421875 102.05078125 C-153.38722656 101.58027344 -152.95023437 101.10976562 -152.5 100.625 C-151.84 100.625 -151.18 100.625 -150.5 100.625 C-150.2525 99.655625 -150.005 98.68625 -149.75 97.6875 C-149.3375 96.676875 -148.925 95.66625 -148.5 94.625 C-146.375 93.75 -146.375 93.75 -144.5 93.625 C-144.396875 93.0475 -144.29375 92.47 -144.1875 91.875 C-142.49319022 86.32998617 -137.78474145 83.1984405 -133.5 79.625 C-132.05774001 78.40142203 -130.62021544 77.17224022 -129.1875 75.9375 C-128.53136719 75.37675781 -127.87523437 74.81601563 -127.19921875 74.23828125 C-125.28082228 72.53617139 -125.28082228 72.53617139 -123.5 69.625 C-121.4765625 68.30859375 -121.4765625 68.30859375 -119.125 67.0625 C-118.35414063 66.64871094 -117.58328125 66.23492187 -116.7890625 65.80859375 C-115.32508545 65.05162268 -113.84120507 64.33127735 -112.3359375 63.66015625 C-110.17139888 62.62214037 -110.17139888 62.62214037 -108.5 59.625 C-108.5 60.285 -108.5 60.945 -108.5 61.625 C-107.75234375 61.20347656 -107.0046875 60.78195313 -106.234375 60.34765625 C-105.24953125 59.79980469 -104.2646875 59.25195312 -103.25 58.6875 C-102.27546875 58.14222656 -101.3009375 57.59695312 -100.296875 57.03515625 C-97.5 55.625 -97.5 55.625 -95.203125 55.05859375 C-94.64109375 54.91550781 -94.0790625 54.77242187 -93.5 54.625 C-93.005 53.635 -93.005 53.635 -92.5 52.625 C-91.2315625 52.7178125 -91.2315625 52.7178125 -89.9375 52.8125 C-85.14394383 52.5510333 -81.77895302 50.76447651 -77.5 48.625 C-77.5 47.965 -77.5 47.305 -77.5 46.625 C-76.695625 46.33625 -75.89125 46.0475 -75.0625 45.75 C-72.3673532 44.89237432 -72.3673532 44.89237432 -71.5 42.625 C-70.84 42.625 -70.18 42.625 -69.5 42.625 C-69.12875 41.573125 -69.12875 41.573125 -68.75 40.5 C-67.5 37.625 -67.5 37.625 -65.4375 34.5625 C-63.40160253 31.88180202 -63.40160253 31.88180202 -63.0625 29.375 C-62.7840625 28.50875 -62.7840625 28.50875 -62.5 27.625 C-60.84750513 26.92394157 -59.17632417 26.26699649 -57.5 25.625 C-56.18666046 24.67510033 -54.89667515 23.69249376 -53.625 22.6875 C-50.09031571 19.95224898 -46.66040544 18.30376009 -42.5 16.625 C-40.11517304 15.32633185 -37.76334904 13.98175615 -35.41796875 12.61328125 C-33.5 11.625 -33.5 11.625 -31.5 11.625 C-31.17 10.635 -30.84 9.645 -30.5 8.625 C-29.860625 8.5425 -29.22125 8.46 -28.5625 8.375 C-23.35399834 7.09944857 -18.45143229 4.8080377 -13.87109375 2.03125 C-9.21238366 0.08787151 -5.00631294 0.01026059 0 0 Z " fill="#050505" transform="translate(266.5,122.375)"/>
<path d="M0 0 C3.96 0 7.92 0 12 0 C13.47447968 5.25283387 14 9.52082862 14 15 C14.81224415 17.05768519 15.44852241 18.44852241 17 20 C16.98839844 19.29875 16.97679687 18.5975 16.96484375 17.875 C16.9103438 12.1447199 17.05707299 6.65756206 18 1 C19 0 19 0 21.50390625 -0.09765625 C23.01791016 -0.08025391 23.01791016 -0.08025391 24.5625 -0.0625 C25.57441406 -0.05347656 26.58632813 -0.04445313 27.62890625 -0.03515625 C28.80259766 -0.01775391 28.80259766 -0.01775391 30 0 C32.4652089 6.73823765 33 12.87102178 33 20 C33.495 20.99 33.495 20.99 34 22 C35.60068712 20.39931288 35.44982707 18.51647303 35.75390625 16.30859375 C35.88603516 15.36435547 36.01816406 14.42011719 36.15429688 13.44726562 C36.28900391 12.45404297 36.42371094 11.46082031 36.5625 10.4375 C36.77036133 8.94186523 36.77036133 8.94186523 36.98242188 7.41601562 C37.32535575 4.94452664 37.66315353 2.47232601 38 0 C41.3 0 44.6 0 48 0 C49.26041675 2.5208335 48.66225891 3.35096436 48 6 C48.495 6.99 48.495 6.99 49 8 C48.34 8 47.68 8 47 8 C46.96261719 9.06476563 46.92523438 10.12953125 46.88671875 11.2265625 C46.53449011 19.50249583 45.69075236 27.20984741 43.76171875 35.29296875 C42.68386405 40.53852829 42.1562563 45.80959322 41.64672852 51.13647461 C41.09223271 56.81553458 41.09223271 56.81553458 40 59 C38.07421875 59.484375 38.07421875 59.484375 35.6875 59.75 C34.51767578 59.89695312 34.51767578 59.89695312 33.32421875 60.046875 C30.54123077 59.99074751 29.19004117 59.74518906 27 58 C26.42578125 55.21484375 26.42578125 55.21484375 26.3125 51.9375 C26.49512961 48.1533675 26.49512961 48.1533675 25 45 C24.95936168 43.33382885 24.957279 41.66611905 25 40 C23.27829629 41.72170371 23.30667129 44.09978717 22.875 46.4375 C22.68679688 47.42621094 22.49859375 48.41492188 22.3046875 49.43359375 C21.76343168 51.98481504 21.76343168 51.98481504 23 54 C22.34 54 21.68 54 21 54 C20.67 55.65 20.34 57.3 20 59 C12.64484848 60.34844444 12.64484848 60.34844444 9.7734375 58.796875 C7.59836443 56.59305647 7.48528191 55.61530379 7.375 52.5625 C7.12439549 48.50509363 6.67179823 44.57381696 6 40.5625 C5.7525 39.07943359 5.7525 39.07943359 5.5 37.56640625 C5.03701781 34.89609405 5.03701781 34.89609405 4 32 C3.82084172 30.02357131 3.68016183 28.04354108 3.5625 26.0625 C3.04398743 18.69632932 1.93291197 11.5090745 0.4375 4.28125 C0 2 0 2 0 0 Z M15 27 C16 29 16 29 16 29 Z M24 31 C25 33 25 33 25 33 Z " fill="#121212" transform="translate(236,263)"/>
<path d="M0 0 C4.62 0 9.24 0 14 0 C14.26554688 1.15757812 14.53109375 2.31515625 14.8046875 3.5078125 C15.16130764 5.04690993 15.51808691 6.58597048 15.875 8.125 C16.04902344 8.88554687 16.22304687 9.64609375 16.40234375 10.4296875 C16.57636719 11.17734375 16.75039062 11.925 16.9296875 12.6953125 C17.08679199 13.37609863 17.24389648 14.05688477 17.40576172 14.75830078 C18.14374562 17.5422647 19.08922696 20.26768087 20 23 C20.33 15.74 20.66 8.48 21 1 C23.52475462 -0.26237731 25.31200466 -0.09856404 28.125 -0.0625 C29.41639893 -0.0459436 29.41639893 -0.0459436 30.73388672 -0.02905273 C31.4817041 -0.01946533 32.22952148 -0.00987793 33 0 C34.23142634 9.63261515 34.15263456 19.27094638 34.13037109 28.96240234 C34.12498547 31.75754147 34.13035616 34.55252184 34.13671875 37.34765625 C34.13605833 39.14322952 34.13477793 40.93880269 34.1328125 42.734375 C34.13483673 43.56056335 34.13686096 44.38675171 34.13894653 45.23797607 C34.12010607 49.92883099 33.77894995 54.37271243 33 59 C31.42120045 59.27719381 29.83646933 59.52074143 28.25 59.75 C27.36828125 59.88921875 26.4865625 60.0284375 25.578125 60.171875 C23 60 23 60 20.8125 58.38671875 C18.75201044 55.67344478 17.78047752 53.30523284 16.75 50.0625 C16.24726563 48.53302734 16.24726563 48.53302734 15.734375 46.97265625 C15.04270078 44.1728473 14.85218099 41.86663294 15 39 C14.34 38.67 13.68 38.34 13 38 C12.67 44.93 12.34 51.86 12 59 C9 60 9 60 2 60 C1.67 42.84 1.34 25.68 1 8 C0.67 8 0.34 8 0 8 C0 5.36 0 2.72 0 0 Z M12 31 C13 34 13 34 13 34 Z " fill="#0F0F0F" transform="translate(153,263)"/>
<path d="M0 0 C0 0.66 0 1.32 0 2 C0.66 2 1.32 2 2 2 C6.20265304 6.90004731 6.6580789 10.95664516 6.78515625 17.2734375 C6.81355087 18.15601227 6.8419455 19.03858704 6.87120056 19.94790649 C6.9250506 21.80844012 6.9690143 23.66928318 7.00366211 25.53027344 C7.0622059 28.36078047 7.16880841 31.18672668 7.27929688 34.015625 C7.32584205 35.83065651 7.36955473 37.64576331 7.41015625 39.4609375 C7.44528824 40.29764984 7.48042023 41.13436218 7.51661682 41.99642944 C7.57352771 48.0836361 6.05522962 52.3855235 2 57 C-2.74347593 60.40153808 -7.11194938 61.85644373 -13 61 C-15.66862037 59.90804955 -17.59827611 58.68120672 -20 57 C-20.495 55.515 -20.495 55.515 -21 54 C-21.99 53.67 -22.98 53.34 -24 53 C-24.85045693 47.82939151 -25.16004883 42.85271865 -25.16796875 37.6171875 C-25.17129715 36.83989288 -25.17462555 36.06259827 -25.17805481 35.26174927 C-25.18308711 33.62974637 -25.18546429 31.99773331 -25.18530273 30.36572266 C-25.18749986 27.87515433 -25.20572344 25.38502206 -25.22460938 22.89453125 C-25.227542 21.30208484 -25.22952767 19.70963634 -25.23046875 18.1171875 C-25.23765427 17.37749725 -25.24483978 16.63780701 -25.25224304 15.8757019 C-25.23429513 11.8051387 -24.81182223 8.66313923 -23 5 C-22.34 5 -21.68 5 -21 5 C-20.95875 4.38125 -20.9175 3.7625 -20.875 3.125 C-20 1 -20 1 -17.5625 -0.25 C-11.69860291 -1.48450465 -5.79404109 -1.66879064 0 0 Z M-11 9 C-13.39839483 10.95739342 -13.39839483 10.95739342 -13.22705078 14.62353516 C-13.22673357 16.17874689 -13.21540299 17.73398051 -13.1953125 19.2890625 C-13.1924826 20.10748627 -13.18965271 20.92591003 -13.18673706 21.76913452 C-13.17552532 24.38790393 -13.15041929 27.00633364 -13.125 29.625 C-13.11497147 31.39843257 -13.1058454 33.17187049 -13.09765625 34.9453125 C-13.07558278 39.29700626 -13.04104644 43.6484455 -13 48 C-12.34 48 -11.68 48 -11 48 C-11 48.66 -11 49.32 -11 50 C-9.02 49.505 -9.02 49.505 -7 49 C-7 48.34 -7 47.68 -7 47 C-6.34 47 -5.68 47 -5 47 C-4.95042142 42.39186151 -4.91419615 37.78387963 -4.89013672 33.17553711 C-4.88010274 31.60910333 -4.86647246 30.04268817 -4.84912109 28.47631836 C-4.82475775 26.21984247 -4.81349084 23.96361506 -4.8046875 21.70703125 C-4.79436493 21.01100296 -4.78404236 20.31497467 -4.77340698 19.59785461 C-4.77249561 15.61415509 -5.2444173 12.58709891 -7 9 C-7.33 9.66 -7.66 10.32 -8 11 C-8.66 11 -9.32 11 -10 11 C-10.33 10.34 -10.66 9.68 -11 9 Z " fill="#1A1A1A" transform="translate(222,263)"/>
<path d="M0 0 C4.04344938 5.88716058 2.838474 14.59801806 2.1875 21.375 C1.16015625 23.89453125 1.16015625 23.89453125 0.1875 25.375 C-0.4725 25.375 -1.1325 25.375 -1.8125 25.375 C-3.97178038 32.06876917 -1.28744206 38.4290711 1.4375 44.5625 C2.95458248 48.13768335 3.25553892 49.0461452 2.4375 53 C2.025 53.78375 1.6125 54.5675 1.1875 55.375 C-4.03891769 55.80339489 -4.03891769 55.80339489 -6.8125 55.375 C-11.498859 50.2200051 -12.12147734 42.08443751 -13.25 35.4140625 C-13.5284375 34.40472656 -13.5284375 34.40472656 -13.8125 33.375 C-14.4725 33.045 -15.1325 32.715 -15.8125 32.375 C-15.78893433 33.31351807 -15.78893433 33.31351807 -15.76489258 34.27099609 C-15.70265325 37.09723931 -15.66354538 39.92333861 -15.625 42.75 C-15.58729492 44.22726562 -15.58729492 44.22726562 -15.54882812 45.734375 C-15.53432617 47.14589844 -15.53432617 47.14589844 -15.51953125 48.5859375 C-15.49596558 49.88990479 -15.49596558 49.88990479 -15.47192383 51.22021484 C-15.64050903 52.2868335 -15.64050903 52.2868335 -15.8125 53.375 C-19.28248729 55.68832486 -20.73759248 55.71457563 -24.8125 55.375 C-25.8025 54.715 -26.7925 54.055 -27.8125 53.375 C-28.17326355 50.93258667 -28.17326355 50.93258667 -28.15307617 47.82373047 C-28.15284958 46.66267792 -28.15262299 45.50162537 -28.15238953 44.3053894 C-28.13690567 43.04703278 -28.12142181 41.78867615 -28.10546875 40.4921875 C-28.10122391 39.20764679 -28.09697906 37.92310608 -28.09260559 36.59963989 C-28.0811468 33.18327359 -28.05167143 29.76728944 -28.01849365 26.35107422 C-27.98781462 22.86561249 -27.97410494 19.38008906 -27.95898438 15.89453125 C-27.92680221 9.05453043 -27.87559376 2.21478356 -27.8125 -4.625 C-24.58488367 -4.88114579 -21.35576639 -5.10009667 -18.125 -5.3125 C-16.75698242 -5.42174805 -16.75698242 -5.42174805 -15.36132812 -5.53320312 C-8.29994351 -5.96972508 -5.23513625 -4.88612717 0 0 Z M-17.8125 5.375 C-17.8125 10.325 -17.8125 15.275 -17.8125 20.375 C-17.4825 20.375 -17.1525 20.375 -16.8125 20.375 C-16.8125 15.425 -16.8125 10.475 -16.8125 5.375 C-17.1425 5.375 -17.4725 5.375 -17.8125 5.375 Z M-15.8125 6.375 C-15.8125 10.995 -15.8125 15.615 -15.8125 20.375 C-14.1625 20.375 -12.5125 20.375 -10.8125 20.375 C-8.67663322 17.17119983 -8.58117825 16.35560033 -8.6875 12.6875 C-8.70554687 11.87925781 -8.72359375 11.07101562 -8.7421875 10.23828125 C-8.76539063 9.62339844 -8.78859375 9.00851562 -8.8125 8.375 C-11.45988916 6.9143715 -12.70698334 6.375 -15.8125 6.375 Z " fill="#141414" transform="translate(546.8125,267.625)"/>
<path d="M0 0 C21 0 21 0 27 4 C29.55186061 8.18446308 29.33320019 12.67231566 29.3125 17.4375 C29.32861328 18.17548828 29.34472656 18.91347656 29.36132812 19.67382812 C29.36567099 24.55955187 28.50617732 27.69191292 26 32 C24.86046761 35.41859718 25.14375921 36.0194049 26.375 39.25 C27.78094416 43.16883078 28.44365448 46.86714755 29 51 C29.6469365 52.6744239 30.30959426 54.34302621 31 56 C31 56.99 31 57.98 31 59 C29.56465159 59.2226746 28.12654475 59.42761906 26.6875 59.625 C25.88699219 59.74101562 25.08648437 59.85703125 24.26171875 59.9765625 C22 60 22 60 19 58 C18.63557767 56.33985384 18.30027117 54.67293936 18 53 C17.34 52.67 16.68 52.34 16 52 C15.39734195 49.85465269 14.89047375 47.6818631 14.4375 45.5 C13.89331558 41.4304541 13.89331558 41.4304541 12 38 C11.67 44.93 11.34 51.86 11 59 C6 60 6 60 0 59 C0 39.53 0 20.06 0 0 Z M12 11 C10.66098208 12.11126659 10.66098208 12.11126659 10.90234375 14.94140625 C10.91394531 16.13636719 10.92554688 17.33132813 10.9375 18.5625 C10.94652344 19.76003906 10.95554687 20.95757812 10.96484375 22.19140625 C10.97644531 23.11824219 10.98804688 24.04507812 11 25 C12.98 25 14.96 25 17 25 C19.61838609 21.07242087 19.36792655 17.56228926 19 13 C16.04622502 10.63019987 16.04622502 10.63019987 12 11 Z " fill="#0D0D0D" transform="translate(378,263)"/>
<path d="M0 0 C4.29 0 8.58 0 13 0 C13.81469045 3.25876179 14.2397051 6.05624006 14.5 9.375 C15.12938258 16.70488635 16.5341192 23.79868269 18 31 C18.04898437 30.05898438 18.09796875 29.11796875 18.1484375 28.1484375 C18.22320312 26.90320313 18.29796875 25.65796875 18.375 24.375 C18.44460938 23.14523437 18.51421875 21.91546875 18.5859375 20.6484375 C18.98352416 17.14517395 19.83725127 14.31041404 21 11 C21.24039076 9.42382965 21.43372102 7.83918742 21.5625 6.25 C21.9 2.2 21.9 2.2 23 0 C26.63 0 30.26 0 34 0 C34 3.96 34 7.92 34 12 C33.34 12 32.68 12 32 12 C32.2784375 13.0828125 32.2784375 13.0828125 32.5625 14.1875 C33.03898644 17.25062711 32.76484536 19.01014995 32 22 C31.66602783 23.33317346 31.33274463 24.66651963 31 26 C30.82855469 26.68320312 30.65710938 27.36640625 30.48046875 28.0703125 C29.05586386 32.61959506 29.05586386 32.61959506 30 37 C29.34 37 28.68 37 28 37 C27.90912109 38.28583984 27.90912109 38.28583984 27.81640625 39.59765625 C27.56218652 43.06677785 27.28719294 46.5334599 27 50 C26.90912109 51.14662109 26.90912109 51.14662109 26.81640625 52.31640625 C26.55529945 54.78359909 26.26779653 56.62261017 24.81640625 58.66796875 C22.26538413 60.53871831 20.43592851 60.29773865 17.3125 60.1875 C16.31863281 60.16042969 15.32476562 60.13335937 14.30078125 60.10546875 C13.54152344 60.07066406 12.78226562 60.03585937 12 60 C9.36044975 52.96119934 7.94712166 45.94924113 6.6484375 38.57421875 C6.29806418 36.64294412 5.92559343 34.71263669 5.43359375 32.8125 C4.91223129 30.63311097 4.81043702 28.54995384 4.6875 26.3125 C4.19887506 20.29426954 2.84068264 14.59051157 1.37182617 8.7512207 C0.62198677 5.75427196 0 3.10339668 0 0 Z " fill="#161616" transform="translate(438,263)"/>
<path d="M0 0 C0.92941406 0.00644531 1.85882813 0.01289063 2.81640625 0.01953125 C8.57860011 0.38879256 8.57860011 0.38879256 10.88671875 2.53515625 C14.18780551 7.1066928 15.4375 10.50279553 15.4375 16.1875 C14.25 18.25 14.25 18.25 12.4375 19.1875 C10.4375 18.8125 10.4375 18.8125 8.4375 18.1875 C7.4475 18.5175 6.4575 18.8475 5.4375 19.1875 C4.4475 18.5275 3.4575 17.8675 2.4375 17.1875 C2.25 14.5625 2.25 14.5625 2.4375 12.1875 C0.7875 12.1875 -0.8625 12.1875 -2.5625 12.1875 C-2.5625 14.8275 -2.5625 17.4675 -2.5625 20.1875 C-1.2425 20.5175 0.0775 20.8475 1.4375 21.1875 C1.4375 21.8475 1.4375 22.5075 1.4375 23.1875 C2.4275 23.5175 3.4175 23.8475 4.4375 24.1875 C4.4375 25.1775 4.4375 26.1675 4.4375 27.1875 C5.4275 27.5175 6.4175 27.8475 7.4375 28.1875 C8.46361949 29.83821396 9.46058143 31.50720006 10.4375 33.1875 C11.75137169 34.54001497 13.08176252 35.87695377 14.4375 37.1875 C16.77823141 41.86896282 15.92886993 48.10615683 15.4375 53.1875 C14.07340796 56.85391325 11.83751985 58.5317945 8.27734375 60.19921875 C3.05398917 62.12636626 -1.1906358 62.9781214 -6.5625 61.1875 C-6.5625 60.5275 -6.5625 59.8675 -6.5625 59.1875 C-7.34625 59.125625 -8.13 59.06375 -8.9375 59 C-9.80375 58.731875 -10.67 58.46375 -11.5625 58.1875 C-12.75 55.75 -12.75 55.75 -13.5625 53.1875 C-14.2225 52.5275 -14.8825 51.8675 -15.5625 51.1875 C-15.5625 50.5275 -15.5625 49.8675 -15.5625 49.1875 C-15.645 48.383125 -15.7275 47.57875 -15.8125 46.75 C-15.5625 44.1875 -15.5625 44.1875 -13.9375 42.375 C-10.96516819 40.88883409 -8.84499457 40.8957227 -5.5625 41.1875 C-4.5625 42.1875 -4.5625 42.1875 -4.5 45.25 C-4.520625 46.219375 -4.54125 47.18875 -4.5625 48.1875 C-1.71171909 48.95466851 -1.71171909 48.95466851 1.4375 49.1875 C3.33708081 47.87431738 3.33708081 47.87431738 4.4375 46.1875 C3.9425 45.40375 3.4475 44.62 2.9375 43.8125 C1.4375 41.1875 1.4375 41.1875 1.4375 39.1875 C0.7775 39.1875 0.1175 39.1875 -0.5625 39.1875 C-5.70298373 34.63450012 -11.37578853 28.74763441 -13.5625 22.1875 C-14.2225 21.1975 -14.8825 20.2075 -15.5625 19.1875 C-14.6875 16 -14.6875 16 -13.5625 13.1875 C-14.2225 13.1875 -14.8825 13.1875 -15.5625 13.1875 C-14.8125 8.4375 -14.8125 8.4375 -12.5625 6.1875 C-12.294375 5.5275 -12.02625 4.8675 -11.75 4.1875 C-9.24240336 -0.03582066 -4.51446664 -0.06906694 0 0 Z " fill="#1A1A1A" transform="translate(128.5625,261.8125)"/>
<path d="M0 0 C4.47915328 -0.02886338 8.95828291 -0.04675187 13.4375 -0.0625 C14.71689453 -0.07087891 15.99628906 -0.07925781 17.31445312 -0.08789062 C19.13686523 -0.09272461 19.13686523 -0.09272461 20.99609375 -0.09765625 C22.12200928 -0.10289307 23.2479248 -0.10812988 24.40795898 -0.11352539 C27 0 27 0 28 1 C28.37086093 6.8410596 28.37086093 6.8410596 28 9 C24.59568053 11.26954631 22.83475798 11.36549949 18.8125 11.625 C17.72582031 11.69976562 16.63914062 11.77453125 15.51953125 11.8515625 C14.27236328 11.92503906 14.27236328 11.92503906 13 12 C11.8422494 15.47325181 11.93133348 18.36067448 12 22 C14.64 22.66 17.28 23.32 20 24 C20 23.34 20 22.68 20 22 C20.66 22 21.32 22 22 22 C22.33 23.32 22.66 24.64 23 26 C23.66 26 24.32 26 25 26 C25 28.31 25 30.62 25 33 C21.92901538 34.53549231 18.70419623 34.4426817 15.3125 34.71875 C12.97731545 34.87136047 12.97731545 34.87136047 11 36 C11.14037521 37.81293089 11.28744889 39.6253443 11.4375 41.4375 C11.51871094 42.44683594 11.59992188 43.45617187 11.68359375 44.49609375 C11.73211468 46.93640779 11.73211468 46.93640779 13 48 C16.62266294 48.28528471 20.24530434 48.44912228 23.875 48.62109375 C25.421875 48.80865234 25.421875 48.80865234 27 49 C28.52150158 52.04300316 28.23899393 54.654085 28 58 C24.61811483 60.25459011 23.45101171 60.2470098 19.4921875 60.23046875 C17.88923828 60.22756836 17.88923828 60.22756836 16.25390625 60.22460938 C15.13886719 60.21236328 14.02382813 60.20011719 12.875 60.1875 C11.19083984 60.1865332 11.19083984 60.1865332 9.47265625 60.18554688 C1.14020707 60.14020707 1.14020707 60.14020707 0 59 C-0.09381302 57.15881971 -0.11743954 55.31402359 -0.11352539 53.47045898 C-0.11344986 52.28931015 -0.11337433 51.10816132 -0.11329651 49.89122009 C-0.10813522 48.6058284 -0.10297394 47.32043671 -0.09765625 45.99609375 C-0.0962413 44.68794205 -0.09482635 43.37979034 -0.09336853 42.03199768 C-0.0895441 38.54837141 -0.07971446 35.06478661 -0.06866455 31.58117676 C-0.05844882 28.02873292 -0.05387056 24.47628241 -0.04882812 20.92382812 C-0.03809212 13.94920168 -0.0210166 6.97460283 0 0 Z " fill="#040404" transform="translate(482,263)"/>
<path d="M0 0 C3.63 0 7.26 0 11 0 C13 5 15 10 17 15 C19.81532819 9.95859836 21.5188509 5.77378925 22 0 C25.96 0 29.92 0 34 0 C34.495 0.99 34.495 0.99 35 2 C34.32585878 3.84206131 33.55871521 5.65042531 32.75 7.4375 C30.61871385 12.34770068 29.01532723 17.13061 27.7734375 22.33203125 C27 25 27 25 25.45703125 27.953125 C22.97095456 33.58430302 23.42345162 39.89222199 23.3125 45.9375 C23.27833984 47.19369141 23.24417969 48.44988281 23.20898438 49.74414062 C23.12686886 52.82933786 23.05759701 55.91426384 23 59 C20.77109005 60.11445498 19.46944894 60.16480286 17 60.1875 C16.29875 60.20167969 15.5975 60.21585937 14.875 60.23046875 C13 60 13 60 11 58 C10.71289062 55.66503906 10.71289062 55.66503906 10.65625 52.765625 C10.62660156 51.71632813 10.59695313 50.66703125 10.56640625 49.5859375 C10.54449219 48.48507812 10.52257812 47.38421875 10.5 46.25 C10.40347998 36.93160093 10.40347998 36.93160093 8 28 C7.6797505 26.40129415 7.38655288 24.79685087 7.125 23.1875 C6.30327527 18.83105459 4.85861605 15.23162309 2.953125 11.25 C1.40666251 7.59933444 0.74029033 3.88652425 0 0 Z " fill="#1B1B1B" transform="translate(291,263)"/>
<path d="M0 0 C1.97909398 -0.02686553 3.95828971 -0.04633375 5.9375 -0.0625 C7.03964844 -0.07410156 8.14179688 -0.08570313 9.27734375 -0.09765625 C12 0 12 0 13 1 C13.09893778 2.77446009 13.12799092 4.55286251 13.12939453 6.33007812 C13.13254669 7.46795776 13.13569885 8.6058374 13.13894653 9.77819824 C13.1369223 11.01670532 13.13489807 12.2552124 13.1328125 13.53125 C13.13376923 14.79263794 13.13472595 16.05402588 13.13571167 17.3536377 C13.13639375 20.02697138 13.13503529 22.70021437 13.13037109 25.37353516 C13.12467381 28.80706691 13.12795301 32.2405205 13.13394356 35.67404938 C13.13841762 38.93895243 13.13528883 42.20384593 13.1328125 45.46875 C13.13483673 46.70725708 13.13686096 47.94576416 13.13894653 49.22180176 C13.13579437 50.3596814 13.13264221 51.49756104 13.12939453 52.66992188 C13.12820114 54.18096497 13.12820114 54.18096497 13.12698364 55.72253418 C13 58 13 58 12 59 C10.189715 59.09879565 8.37547273 59.12971514 6.5625 59.125 C5.07943359 59.12886719 5.07943359 59.12886719 3.56640625 59.1328125 C1 59 1 59 -1 58 C-1.02314782 50.73305527 -1.04092756 43.46611846 -1.05181217 36.19914436 C-1.05703565 32.82496974 -1.06412361 29.45082029 -1.07543945 26.07666016 C-1.08752436 22.19953741 -1.09323263 18.3224506 -1.09765625 14.4453125 C-1.10281754 13.23070343 -1.10797882 12.01609436 -1.11329651 10.76467896 C-1.11340981 9.08316238 -1.11340981 9.08316238 -1.11352539 7.36767578 C-1.115746 6.37728302 -1.11796661 5.38689026 -1.12025452 4.3664856 C-1 2 -1 2 0 0 Z " fill="#212121" transform="translate(418,263)"/>
<path d="M0 0 C2.625 0.1875 2.625 0.1875 5.625 2.1875 C5.955 1.5275 6.285 0.8675 6.625 0.1875 C8.605 0.1875 10.585 0.1875 12.625 0.1875 C12.625 9.7575 12.625 19.3275 12.625 29.1875 C9.985 29.1875 7.345 29.1875 4.625 29.1875 C4.295 28.5275 3.965 27.8675 3.625 27.1875 C3.295 27.8475 2.965 28.5075 2.625 29.1875 C0.645 29.1875 -1.335 29.1875 -3.375 29.1875 C-3.39965881 25.21819011 -3.41784023 21.24890966 -3.42993164 17.27954102 C-3.43497057 15.92829614 -3.44180177 14.57705674 -3.45043945 13.22583008 C-3.46252419 11.28729566 -3.46769828 9.348722 -3.47265625 7.41015625 C-3.47789307 6.24234619 -3.48312988 5.07453613 -3.48852539 3.87133789 C-3.33590926 0.26336126 -3.33590926 0.26336126 0 0 Z M5.625 3.1875 C4.69434867 5.79332371 4.47582593 6.82948224 5.5625 9.4375 C5.913125 10.015 6.26375 10.5925 6.625 11.1875 C6.625 8.5475 6.625 5.9075 6.625 3.1875 C6.295 3.1875 5.965 3.1875 5.625 3.1875 Z M2.625 20.1875 C2.955 21.5075 3.285 22.8275 3.625 24.1875 C3.955 23.5275 4.285 22.8675 4.625 22.1875 C3.965 21.5275 3.305 20.8675 2.625 20.1875 Z " fill="#181818" transform="translate(386.375,339.8125)"/>
<path d="M0 0 C3.93724353 0.03761698 7.80602158 0.24352158 10.75 3.1875 C10.84983684 5.10201817 10.87967589 7.02038619 10.875 8.9375 C10.87886719 10.50757813 10.87886719 10.50757813 10.8828125 12.109375 C10.75 15.1875 10.75 15.1875 10.18359375 17.77734375 C9.69114125 20.51466979 10.00714667 22.31860747 10.6875 25 C11.038125 26.381875 11.38875 27.76375 11.75 29.1875 C6.14 29.1875 0.53 29.1875 -5.25 29.1875 C-5.27291487 25.2181345 -5.29284015 21.2489368 -5.30493164 17.27954102 C-5.30997057 15.92829614 -5.31680177 14.57705674 -5.32543945 13.22583008 C-5.33752419 11.28729566 -5.34269828 9.348722 -5.34765625 7.41015625 C-5.35289307 6.24234619 -5.35812988 5.07453613 -5.36352539 3.87133789 C-5.18309992 -0.39407547 -3.86748828 0.03201563 0 0 Z M1.75 7.1875 C2.08 8.5075 2.41 9.8275 2.75 11.1875 C3.41 11.1875 4.07 11.1875 4.75 11.1875 C4.42 9.8675 4.09 8.5475 3.75 7.1875 C3.09 7.1875 2.43 7.1875 1.75 7.1875 Z M1.75 19.1875 C2.75 22.1875 2.75 22.1875 2.75 22.1875 Z " fill="#212121" transform="translate(289.25,339.8125)"/>
<path d="M0 0 C3 2 3 2 3.51171875 4.1640625 C3.56972656 4.97617187 3.62773437 5.78828125 3.6875 6.625 C3.78611328 7.85089844 3.78611328 7.85089844 3.88671875 9.1015625 C3.92410156 9.72804688 3.96148437 10.35453125 4 11 C3.34 11 2.68 11 2 11 C2 11.66 2 12.32 2 13 C1.01 13 0.02 13 -1 13 C-1 12.34 -1 11.68 -1 11 C-1.66 11 -2.32 11 -3 11 C-3 10.01 -3 9.02 -3 8 C-3.33 8.33 -3.66 8.66 -4 9 C-3.91062197 10.52519276 -3.75462854 12.04681929 -3.5625 13.5625 C-3.46066406 14.38878906 -3.35882813 15.21507812 -3.25390625 16.06640625 C-3.17011719 16.70449219 -3.08632812 17.34257812 -3 18 C-0.69 18 1.62 18 4 18 C4.21005969 21.5710148 4.14971266 24.49739321 3.125 27.9375 C0.08782732 30.88534407 -2.42640554 30.56022082 -6.52734375 30.56640625 C-9.80272404 29.81612167 -10.91123597 28.60745224 -13 26 C-13.36230469 23.34277344 -13.36230469 23.34277344 -13.171875 20.359375 C-13.11386719 19.28945313 -13.05585938 18.21953125 -12.99609375 17.1171875 C-12.91488281 16.00601562 -12.83367187 14.89484375 -12.75 13.75 C-12.68425781 12.62335938 -12.61851562 11.49671875 -12.55078125 10.3359375 C-12.38584506 7.55558461 -12.20159083 4.7778963 -12 2 C-7.63426479 -0.2924236 -4.93457872 -0.31330659 0 0 Z M-4 21 C-3 23 -3 23 -3 23 Z " fill="#191919" transform="translate(246,340)"/>
<path d="M0 0 C1.134375 0.020625 2.26875 0.04125 3.4375 0.0625 C8.18642359 8.28020257 9.02815011 19.7652298 8.4375 29.0625 C6.4575 29.0625 4.4775 29.0625 2.4375 29.0625 C2.4375 28.4025 2.4375 27.7425 2.4375 27.0625 C1.7775 27.0625 1.1175 27.0625 0.4375 27.0625 C0.4375 26.0725 0.4375 25.0825 0.4375 24.0625 C0.06625 24.8875 -0.305 25.7125 -0.6875 26.5625 C-1.30625 27.3875 -1.925 28.2125 -2.5625 29.0625 C-5.75 29.375 -5.75 29.375 -8.5625 29.0625 C-10.01349096 26.16051808 -9.00268414 24.51914653 -8.125 21.4375 C-7.14816009 17.75894971 -6.36709171 14.49753774 -6.5 10.6875 C-6.56408882 6.97034847 -5.9773935 4.47489021 -4.5625 1.0625 C-3.5625 0.0625 -3.5625 0.0625 0 0 Z " fill="#202020" transform="translate(266.5625,339.9375)"/>
<path d="M0 0 C1.4540625 0.0309375 1.4540625 0.0309375 2.9375 0.0625 C7.55251457 8.48152239 8.13410805 19.62531352 7.9375 29.0625 C5.0625 29.25 5.0625 29.25 1.9375 29.0625 C1.2775 28.0725 0.6175 27.0825 -0.0625 26.0625 C-0.7225 27.0525 -1.3825 28.0425 -2.0625 29.0625 C-5.1875 29.25 -5.1875 29.25 -8.0625 29.0625 C-7.92061015 26.52055839 -7.77410845 23.97902007 -7.625 21.4375 C-7.58568359 20.72464844 -7.54636719 20.01179688 -7.50585938 19.27734375 C-6.36403804 0.12987833 -6.36403804 0.12987833 0 0 Z " fill="#222222" transform="translate(365.0625,339.9375)"/>
<path d="M0 0 C2.375 0.8125 2.375 0.8125 4 2 C5 5 5 5 4.25 7.5625 C3 10 3 10 0 12 C0.45632813 12.49628906 0.91265625 12.99257813 1.3828125 13.50390625 C3.16253268 15.60684916 4.67960571 17.57927713 6 20 C5.61467146 23.91750687 4.8411575 25.9233184 2.4375 29 C-1.39823389 30.57363442 -4.9966868 29.70998931 -9 29 C-10.25664978 26.09399739 -11 24.20395416 -11 21 C-9.02 20.67 -7.04 20.34 -5 20 C-5.75150023 16.72226496 -5.75150023 16.72226496 -9 15 C-9 14.01 -9 13.02 -9 12 C-9.66 11.67 -10.32 11.34 -11 11 C-10.91291331 9.54054712 -10.80473093 8.08234132 -10.6875 6.625 C-10.62949219 5.81289063 -10.57148438 5.00078125 -10.51171875 4.1640625 C-9.2682826 -1.09443848 -4.37817968 -0.30724068 0 0 Z M-3 7 C-3 7.99 -3 8.98 -3 10 C-1.68 9.67 -0.36 9.34 1 9 C0.01 9 -0.98 9 -2 9 C-2.33 8.34 -2.66 7.68 -3 7 Z M-4 21 C-3 24 -3 24 -3 24 Z " fill="#222222" transform="translate(420,340)"/>
<path d="M0 0 C1.98 0 3.96 0 6 0 C6.309375 0.639375 6.61875 1.27875 6.9375 1.9375 C7.8345163 3.93610821 7.8345163 3.93610821 9 5 C9.33 3.35 9.66 1.7 10 0 C11.98 0 13.96 0 16 0 C15.85790331 2.6877438 15.7114277 5.37513302 15.5625 8.0625 C15.52318359 8.81466797 15.48386719 9.56683594 15.44335938 10.34179688 C15.07911263 16.81418134 14.71710153 23.02237663 12 29 C9.69 29 7.38 29 5 29 C4.67 28.01 4.34 27.02 4 26 C3.34 25.67 2.68 25.34 2 25 C2 23.68 2 22.36 2 21 C1.71768557 18.82919387 1.40225993 16.66255957 1.0625 14.5 C0.80146484 12.81390625 0.80146484 12.81390625 0.53515625 11.09375 C0.06612073 8.12154492 0.06612073 8.12154492 -0.59375 5.734375 C-1.10395307 3.55620035 -0.67626919 2.1039486 0 0 Z M9 7 C10 9 10 9 10 9 Z M8 11 C9 14 9 14 9 14 Z " fill="#282828" transform="translate(333,340)"/>
<path d="M0 0 C2.64 0 5.28 0 8 0 C10.66825916 9.33890706 12.20931887 19.28162371 12 29 C9.69 29 7.38 29 5 29 C5.33 27.35 5.66 25.7 6 24 C5.01 24.33 4.02 24.66 3 25 C2.26676204 27.01508358 2.26676204 27.01508358 2 29 C-0.31 29 -2.62 29 -5 29 C-5.22086621 25.35570749 -4.57315636 22.49336867 -3.54345703 19.01733398 C-2.57259236 15.41344593 -1.99271489 11.74042486 -1.375 8.0625 C-1.2409375 7.28326172 -1.106875 6.50402344 -0.96875 5.70117188 C-0.6424032 3.80136729 -0.32071377 1.90076363 0 0 Z M4 15 C5 18 5 18 5 18 Z " fill="#1D1D1D" transform="translate(313,340)"/>
<path d="M0 0 C0.66 0 1.32 0 2 0 C2.84109099 3.24804287 3.67150656 6.49872304 4.5 9.75 C4.73847656 10.67039063 4.97695313 11.59078125 5.22265625 12.5390625 C5.44824219 13.42851562 5.67382812 14.31796875 5.90625 15.234375 C6.11572266 16.05131836 6.32519531 16.86826172 6.54101562 17.70996094 C7 20 7 20 7 24 C1.91514713 23.11853332 -0.44071302 19.84609111 -3.8125 16.1875 C-4.42287109 15.55779297 -5.03324219 14.92808594 -5.66210938 14.27929688 C-6.23380859 13.66505859 -6.80550781 13.05082031 -7.39453125 12.41796875 C-7.91893799 11.85875732 -8.44334473 11.2995459 -8.98364258 10.72338867 C-10 9 -10 9 -9.6628418 6.78637695 C-9.444104 6.19687256 -9.22536621 5.60736816 -9 5 C-5.535 4.505 -5.535 4.505 -2 4 C-1.67 4.66 -1.34 5.32 -1 6 C-0.67 4.02 -0.34 2.04 0 0 Z " fill="#55BBA9" transform="translate(546,157)"/>
<path d="M0 0 C0.66 0.33 1.32 0.66 2 1 C2.29296875 7.0546875 2.29296875 7.0546875 2 9 C-1.40431947 11.26954631 -3.16524202 11.36549949 -7.1875 11.625 C-8.27417969 11.69976562 -9.36085938 11.77453125 -10.48046875 11.8515625 C-11.72763672 11.92503906 -11.72763672 11.92503906 -13 12 C-14.1577506 15.47325181 -14.06866652 18.36067448 -14 22 C-10.04 22.99 -10.04 22.99 -6 24 C-6 23.34 -6 22.68 -6 22 C-5.34 22 -4.68 22 -4 22 C-3.67 23.32 -3.34 24.64 -3 26 C-2.34 26 -1.68 26 -1 26 C-1 28.31 -1 30.62 -1 33 C-3.76452033 34.38226016 -6.0461363 34.09525387 -9.125 34.0625 C-10.22070312 34.05347656 -11.31640625 34.04445313 -12.4453125 34.03515625 C-13.28835938 34.02355469 -14.13140625 34.01195312 -15 34 C-15 33.67 -15 33.34 -15 33 C-11.37 33 -7.74 33 -4 33 C-4 30.36 -4 27.72 -4 25 C-4.78246094 25.01160156 -5.56492187 25.02320313 -6.37109375 25.03515625 C-7.38300781 25.04417969 -8.39492188 25.05320312 -9.4375 25.0625 C-10.44683594 25.07410156 -11.45617187 25.08570313 -12.49609375 25.09765625 C-15 25 -15 25 -16 24 C-16.09909302 21.66839945 -16.12970504 19.33370058 -16.125 17 C-16.12757813 15.72125 -16.13015625 14.4425 -16.1328125 13.125 C-16 10 -16 10 -15 9 C-12.46950598 8.92686433 -9.96695163 8.90752473 -7.4375 8.9375 C-6.72658203 8.94201172 -6.01566406 8.94652344 -5.28320312 8.95117188 C-3.52209987 8.96299136 -1.76103964 8.98092737 0 9 C0 6.03 0 3.06 0 0 Z " fill="#4D4D4D" transform="translate(508,263)"/>
<path d="M0 0 C-0.99 0.495 -0.99 0.495 -2 1 C-2.0825 1.639375 -2.165 2.27875 -2.25 2.9375 C-2.4975 3.618125 -2.745 4.29875 -3 5 C-5.9375 6.1875 -5.9375 6.1875 -9 7 C-9.99 7.495 -9.99 7.495 -11 8 C-12.54023996 8.06950541 -14.08334988 8.08452357 -15.625 8.0625 C-16.85089844 8.04896484 -16.85089844 8.04896484 -18.1015625 8.03515625 C-19.04128906 8.01775391 -19.04128906 8.01775391 -20 8 C-20 8.66 -20 9.32 -20 10 C-25.625 11.125 -25.625 11.125 -29 10 C-29 9.34 -29 8.68 -29 8 C-27.35 7.67 -25.7 7.34 -24 7 C-24 6.34 -24 5.68 -24 5 C-21.36 5 -18.72 5 -16 5 C-15.67 4.01 -15.34 3.02 -15 2 C-13.43883181 1.66048381 -11.87598662 1.32867456 -10.3125 1 C-9.44238281 0.814375 -8.57226562 0.62875 -7.67578125 0.4375 C-5.06287036 0.01027953 -2.64186962 -0.07616201 0 0 Z " fill="#6CA29C" transform="translate(191,168)"/>
<path d="M0 0 C0.66 0.33 1.32 0.66 2 1 C2.33 1.99 2.66 2.98 3 4 C2.34 4 1.68 4 1 4 C1 4.66 1 5.32 1 6 C-0.93694678 6.81381795 -2.87457711 7.62600916 -4.8125 8.4375 C-6.43091797 9.11619141 -6.43091797 9.11619141 -8.08203125 9.80859375 C-10.0295126 10.60375013 -12.00438943 11.33479648 -14 12 C-14.66 11.67 -15.32 11.34 -16 11 C-16.33 11.99 -16.66 12.98 -17 14 C-19.0625 14.6875 -19.0625 14.6875 -21 15 C-21.66 14.01 -22.32 13.02 -23 12 C-22.21496094 11.61328125 -21.42992187 11.2265625 -20.62109375 10.828125 C-13.70458643 7.42195989 -13.70458643 7.42195989 -7 3.625 C-4 2 -4 2 0 2 C0 1.34 0 0.68 0 0 Z " fill="#7FC0B9" transform="translate(251,120)"/>
<path d="M0 0 C0.99 0.66 1.98 1.32 3 2 C2.34 2 1.68 2 1 2 C1.14037521 3.81293089 1.28744889 5.6253443 1.4375 7.4375 C1.51871094 8.44683594 1.59992188 9.45617187 1.68359375 10.49609375 C1.73211468 12.93640779 1.73211468 12.93640779 3 14 C6.62266294 14.28528471 10.24530434 14.44912228 13.875 14.62109375 C14.90625 14.74613281 15.9375 14.87117188 17 15 C18.52150158 18.04300316 18.23899393 20.654085 18 24 C14.58761477 26.27492349 13.63955735 26.19555565 9.67578125 25.9765625 C8.64775391 25.925 7.61972656 25.8734375 6.56054688 25.8203125 C5.48869141 25.75585938 4.41683594 25.69140625 3.3125 25.625 C2.22904297 25.56828125 1.14558594 25.5115625 0.02929688 25.453125 C-2.64780007 25.31160446 -5.32396576 25.16018849 -8 25 C-8 24.67 -8 24.34 -8 24 C-0.08 24 7.84 24 16 24 C16 21.36 16 18.72 16 16 C10.72 16 5.44 16 0 16 C0 10.72 0 5.44 0 0 Z " fill="#8E8E8E" transform="translate(492,297)"/>
<path d="M0 0 C1.875 0.5 1.875 0.5 4 2 C5.59836792 5.98713755 6 9.72005913 6 14 C2.21388773 13.45912682 0.44599233 11.88277668 -2 9 C-2 7 -2 7 0 5 C0.16687448 2.41645782 0.16687448 2.41645782 0 0 Z " fill="#4AB4A1" transform="translate(547,167)"/>
<path d="M0 0 C0 -0.66 0 -1.32 0 -2 C0.66 -2 1.32 -2 2 -2 C2.33 -0.68 2.66 0.64 3 2 C3.66 2 4.32 2 5 2 C5 4.31 5 6.62 5 9 C2.23547967 10.38226016 -0.0461363 10.09525387 -3.125 10.0625 C-4.22070312 10.05347656 -5.31640625 10.04445313 -6.4453125 10.03515625 C-7.70988281 10.01775391 -7.70988281 10.01775391 -9 10 C-9 9.67 -9 9.34 -9 9 C-5.37 9 -1.74 9 2 9 C2 6.36 2 3.72 2 1 C-1.63 1 -5.26 1 -9 1 C-9 0.34 -9 -0.32 -9 -1 C-5.79937313 -2.60031344 -3.27728194 -1.03173691 0 0 Z " fill="#888888" transform="translate(502,287)"/>
<path d="M0 0 C0.33 0 0.66 0 1 0 C1.02705729 1.77074917 1.04642195 3.54161711 1.0625 5.3125 C1.07410156 6.29863281 1.08570312 7.28476563 1.09765625 8.30078125 C1 11 1 11 0 14 C0.020625 14.7425 0.04125 15.485 0.0625 16.25 C-0.01671024 19.73525072 -1.00558519 22.66578565 -2 26 C-2.36270588 27.99488234 -2.70640699 29.9937811 -3 32 C-3.33 32 -3.66 32 -4 32 C-4.16689426 25.75960596 -3.54459063 19.90747988 -2.5625 13.75 C-2.42779297 12.86570313 -2.29308594 11.98140625 -2.15429688 11.0703125 C-1.57510215 7.32956217 -0.9646971 3.66324872 0 0 Z M1 6 C1.99 6.495 1.99 6.495 3 7 C2.67 7.99 2.34 8.98 2 10 C1.67 8.68 1.34 7.36 1 6 Z " fill="#7BC1B6" transform="translate(123,167)"/>
<path d="M0 0 C0.33 0 0.66 0 1 0 C1 16.17 1 32.34 1 49 C0.67 49 0.34 49 0 49 C0 32.83 0 16.66 0 0 Z " fill="#585858" transform="translate(153,272)"/>
<path d="M0 0 C2.28062828 3.42094242 2.21925007 4.68187222 2.125 8.6875 C2.10695313 9.68136719 2.08890625 10.67523438 2.0703125 11.69921875 C2.03550781 12.83810547 2.03550781 12.83810547 2 14 C1.34 14 0.68 14 0 14 C-0.66 18.29 -1.32 22.58 -2 27 C-2.33 27 -2.66 27 -3 27 C-3.24794402 20.4294834 -2.32388229 14.43028541 -1 8 C-0.34 8 0.32 8 1 8 C0.67 7.34 0.34 6.68 0 6 C-0.039992 4.00039988 -0.04346799 1.99952758 0 0 Z " fill="#737373" transform="translate(260,288)"/>
<path d="M0 0 C2.97 0.99 5.94 1.98 9 3 C9 3.99 9 4.98 9 6 C4.57756501 8.56786548 1.48856529 7.71809676 -3.20703125 6.5078125 C-3.79871094 6.34023437 -4.39039063 6.17265625 -5 6 C-5 5.67 -5 5.34 -5 5 C-3.02 4.34 -1.04 3.68 1 3 C0.67 2.01 0.34 1.02 0 0 Z " fill="#2F2F2F" transform="translate(486,234)"/>
<path d="M0 0 C0.66 0.33 1.32 0.66 2 1 C0.700625 1.8353125 0.700625 1.8353125 -0.625 2.6875 C-6.666391 6.55066831 -6.666391 6.55066831 -11 12 C-13.90050829 13.88141079 -16.88656995 15.50094109 -20 17 C-17.17270475 13.46588094 -14.67348555 10.66011023 -11 8 C-10.34 7.01 -9.68 6.02 -9 5 C-6.90625 3.578125 -6.90625 3.578125 -4.5 2.25 C-3.7059375 1.80140625 -2.911875 1.3528125 -2.09375 0.890625 C-1.05734375 0.44976562 -1.05734375 0.44976562 0 0 Z " fill="#0D1517" transform="translate(152,187)"/>
<path d="M0 0 C2.64 0 5.28 0 8 0 C8 0.66 8 1.32 8 2 C6.68 2.33 5.36 2.66 4 3 C4 3.66 4 4.32 4 5 C-1.625 6.125 -1.625 6.125 -5 5 C-5 4.34 -5 3.68 -5 3 C-3.35 2.67 -1.7 2.34 0 2 C0 1.34 0 0.68 0 0 Z " fill="#78B5AD" transform="translate(167,173)"/>
<path d="M0 0 C1.30660357 4.29727397 0.6596762 7.60215865 0 12 C-0.99 12.33 -1.98 12.66 -3 13 C-3.66 16.63 -4.32 20.26 -5 24 C-5.66 24 -6.32 24 -7 24 C-5.70476749 15.60998643 -2.9867484 7.91146331 0 0 Z " fill="#8FD0C5" transform="translate(131,141)"/>
<path d="M0 0 C8.06810951 -0.46546786 15.37375936 1.45791979 23 4 C23 4.99 23 5.98 23 7 C21.80375 6.566875 20.6075 6.13375 19.375 5.6875 C13.04877728 3.56188917 6.53427046 2.31057203 0 1 C0 0.67 0 0.34 0 0 Z " fill="#7AC6B8" transform="translate(478,129)"/>
<path d="M0 0 C0.99 0.33 1.98 0.66 3 1 C-6.0625 10.32142857 -6.0625 10.32142857 -12 11 C-9.20482229 8.12011993 -6.34554952 5.32435285 -3.375 2.625 C-2.80523437 2.10164063 -2.23546875 1.57828125 -1.6484375 1.0390625 C-1.10445312 0.69617187 -0.56046875 0.35328125 0 0 Z " fill="#75C5B7" transform="translate(216,34)"/>
<path d="M0 0 C0.99 0.495 0.99 0.495 2 1 C1.94779297 1.85271484 1.94779297 1.85271484 1.89453125 2.72265625 C1.75233111 6.77874604 1.75270148 10.03391441 3.5 13.75 C4.95075012 16.89329193 5.3079967 18.61203631 5 22 C4.67 21.34 4.34 20.68 4 20 C3.34 20 2.68 20 2 20 C0.2120463 13.1834265 -0.23668569 7.03482474 0 0 Z " fill="#717171" transform="translate(248,268)"/>
<path d="M0 0 C0.66 0.33 1.32 0.66 2 1 C2.33 1.99 2.66 2.98 3 4 C2.34 4 1.68 4 1 4 C1 4.66 1 5.32 1 6 C-0.65 6.66 -2.3 7.32 -4 8 C-4.33 7.34 -4.66 6.68 -5 6 C-5.66 6 -6.32 6 -7 6 C-7 5.34 -7 4.68 -7 4 C-4 2 -4 2 0 2 C0 1.34 0 0.68 0 0 Z " fill="#79B3A9" transform="translate(251,120)"/>
<path d="M0 0 C3.40218955 1.45808124 4.95297781 4.02020714 7.1875 6.9375 C3.8875 6.2775 0.5875 5.6175 -2.8125 4.9375 C-3.1425 3.6175 -3.4725 2.2975 -3.8125 0.9375 C-1.8125 -0.0625 -1.8125 -0.0625 0 0 Z M-2.8125 1.9375 C-2.4825 2.5975 -2.1525 3.2575 -1.8125 3.9375 C-1.4825 3.2775 -1.1525 2.6175 -0.8125 1.9375 C-1.4725 1.9375 -2.1325 1.9375 -2.8125 1.9375 Z " fill="#98BAB5" transform="translate(299.8125,128.0625)"/>
<path d="M0 0 C0.33 0 0.66 0 1 0 C0.63076923 7.26153846 0.63076923 7.26153846 -2.5625 11 C-3.366875 11.66 -4.17125 12.32 -5 13 C-4.48474397 7.71862571 -2.74522883 4.42778844 0 0 Z " fill="#72BFB4" transform="translate(142,118)"/>
<path d="M0 0 C2.475 0.495 2.475 0.495 5 1 C5.33 3.31 5.66 5.62 6 8 C7.32 8.33 8.64 8.66 10 9 C9.01 9.33 8.02 9.66 7 10 C6.01 9.34 5.02 8.68 4 8 C3.8125 5.375 3.8125 5.375 4 3 C2.68 3 1.36 3 0 3 C0 2.01 0 1.02 0 0 Z " fill="#777777" transform="translate(127,271)"/>
<path d="M0 0 C0.66 0 1.32 0 2 0 C4.45855991 5.26322777 6.56176509 10.36691325 8 16 C4.56164011 13.70776008 3.95455568 12.27561689 2.3125 8.5625 C1.87550781 7.59441406 1.43851563 6.62632812 0.98828125 5.62890625 C0 3 0 3 0 0 Z " fill="#6ABBAD" transform="translate(536,129)"/>
<path d="M0 0 C-1.32 0.33 -2.64 0.66 -4 1 C-4 1.66 -4 2.32 -4 3 C-10.625 5 -10.625 5 -14 5 C-14 4.01 -14 3.02 -14 2 C-4.58997722 -0.29612756 -4.58997722 -0.29612756 0 0 Z " fill="#7BC9B9" transform="translate(308,1)"/>
<path d="M0 0 C2.25242085 2.25242085 2.41353935 3.14523536 3 6.1875 C3.81778655 10.19854832 4.83162529 14.0775992 6 18 C1.75976499 14.60781199 0.77311704 11.17393712 0 6 C-0.125 2.5 -0.125 2.5 0 0 Z " fill="#5E5E5E" transform="translate(168,299)"/>
<path d="M0 0 C0.66 0 1.32 0 2 0 C1.63076923 6.4 1.63076923 6.4 -1.5625 9.4375 C-2.7690625 10.2109375 -2.7690625 10.2109375 -4 11 C-4.66 10.34 -5.32 9.68 -6 9 C-5.01 8.67 -4.02 8.34 -3 8 C-3 6.68 -3 5.36 -3 4 C-2.34 4 -1.68 4 -1 4 C-0.67 2.68 -0.34 1.36 0 0 Z " fill="#74B8AD" transform="translate(141,188)"/>
<path d="M0 0 C2.31 0 4.62 0 7 0 C7.66 1.32 8.32 2.64 9 4 C6.69 3.34 4.38 2.68 2 2 C2 5.63 2 9.26 2 13 C1.67 13 1.34 13 1 13 C0.67 8.71 0.34 4.42 0 0 Z " fill="#6B6B6B" transform="translate(529,272)"/>
<path d="M0 0 C-1.38877354 3.35620271 -2.91677965 5.07298728 -6 7 C-6.66 7 -7.32 7 -8 7 C-7.25 4.0625 -7.25 4.0625 -6 1 C-3.81903388 0.04582732 -2.35817766 0 0 0 Z " fill="#6BA49E" transform="translate(132,202)"/>
<path d="M0 0 C2.29013653 3.4352048 2.17842973 4.985331 2 9 C1.34 9 0.68 9 0 9 C0 9.66 0 10.32 0 11 C-0.99 11 -1.98 11 -3 11 C-3 10.34 -3 9.68 -3 9 C-3.66 9 -4.32 9 -5 9 C-5 7.02 -5 5.04 -5 3 C-4.67 3 -4.34 3 -4 3 C-4 4.65 -4 6.3 -4 8 C-2.35 8 -0.7 8 1 8 C0.67 5.36 0.34 2.72 0 0 Z " fill="#8E8E8E" transform="translate(248,342)"/>
<path d="M0 0 C1.485 0.99 1.485 0.99 3 2 C2.34 2 1.68 2 1 2 C1.14133499 3.77119803 1.28823208 5.54195287 1.4375 7.3125 C1.51871094 8.29863281 1.59992188 9.28476562 1.68359375 10.30078125 C1.91812559 13.09375599 1.91812559 13.09375599 3 16 C2.01 16 1.02 16 0 16 C0 10.72 0 5.44 0 0 Z " fill="#525252" transform="translate(492,297)"/>
<path d="M0 0 C0.33 1.32 0.66 2.64 1 4 C0.34 4 -0.32 4 -1 4 C-1.103125 4.5775 -1.20625 5.155 -1.3125 5.75 C-2.09792798 8.32049158 -3.30504197 9.93657284 -5 12 C-5.66 11.67 -6.32 11.34 -7 11 C-5.07848152 6.86873527 -2.95749791 3.46741134 0 0 Z " fill="#77C4B4" transform="translate(156,94)"/>
<path d="M0 0 C0.33 0 0.66 0 1 0 C1 8.58 1 17.16 1 26 C0.67 26 0.34 26 0 26 C0 17.42 0 8.84 0 0 Z " fill="#000000" transform="translate(400,342)"/>
<path d="M0 0 C0.33 0 0.66 0 1 0 C1.26396796 4.35547136 0.2398502 7.84285522 -1 12 C-1.36270588 13.99488234 -1.70640699 15.9937811 -2 18 C-2.33 18 -2.66 18 -3 18 C-3.21586845 12.06361776 -2.71249434 6.71248111 -1 1 C-0.67 0.67 -0.34 0.34 0 0 Z " fill="#85CDC1" transform="translate(122,181)"/>
<path d="M0 0 C8.25 0 16.5 0 25 0 C25 0.33 25 0.66 25 1 C16.75 1 8.5 1 0 1 C0 0.67 0 0.34 0 0 Z " fill="#424242" transform="translate(483,261)"/>
<path d="M0 0 C2.12438339 -0.08078641 4.2496323 -0.13909141 6.375 -0.1875 C7.55835938 -0.22230469 8.74171875 -0.25710937 9.9609375 -0.29296875 C11.46527344 -0.14794922 11.46527344 -0.14794922 13 0 C13.66 0.99 14.32 1.98 15 3 C9.9697924 2.47462276 4.98114761 1.89405214 0 1 C0 0.67 0 0.34 0 0 Z " fill="#77C3B4" transform="translate(399,99)"/>
<path d="M0 0 C-0.6875 1.9375 -0.6875 1.9375 -2 4 C-4.87939419 4.93580311 -6.25509788 5.37245106 -9 4 C-6.31059578 0.90718514 -4.07621501 0 0 0 Z " fill="#5AB7A9" transform="translate(239,24)"/>
<path d="M0 0 C0.33 0 0.66 0 1 0 C1 3.96 1 7.92 1 12 C0.01 12.495 0.01 12.495 -1 13 C-1.80967438 10.08517222 -2.21845993 8.53886783 -1.0625 5.6875 C-0.711875 5.130625 -0.36125 4.57375 0 4 C-0.66 4 -1.32 4 -2 4 C-1.34 2.68 -0.68 1.36 0 0 Z " fill="#AFAFAF" transform="translate(115,271)"/>
<path d="M0 0 C-6.4 4.06153846 -6.4 4.06153846 -9.4375 3.75 C-9.953125 3.5025 -10.46875 3.255 -11 3 C-9.08400609 0.55178556 -8.02756971 0.00675177 -4.9375 -0.75 C-2 -1 -2 -1 0 0 Z " fill="#80C7BB" transform="translate(346,115)"/>
<path d="M0 0 C-1.69179328 2.04219706 -2.63727666 2.91793306 -5.26171875 3.51171875 C-6.06222656 3.56972656 -6.86273438 3.62773437 -7.6875 3.6875 C-8.49574219 3.75324219 -9.30398437 3.81898437 -10.13671875 3.88671875 C-11.05904297 3.94279297 -11.05904297 3.94279297 -12 4 C-8.71298741 1.21868166 -4.24676932 -2.12338466 0 0 Z " fill="#76C2B6" transform="translate(265,12)"/>
<path d="M0 0 C2.02350324 3.03525486 2.32124018 4.19426202 2.625 7.6875 C2.69976563 8.49574219 2.77453125 9.30398437 2.8515625 10.13671875 C2.92503906 11.05904297 2.92503906 11.05904297 3 12 C1.0625 11.625 1.0625 11.625 -1 11 C-1.33 10.34 -1.66 9.68 -2 9 C-1.34 9 -0.68 9 0 9 C0 6.03 0 3.06 0 0 Z " fill="#93CBC5" transform="translate(550,169)"/>
<path d="M0 0 C0.6875 1.75 0.6875 1.75 1 4 C-0.84523453 7.10776342 -3.40966446 9.49898638 -6 12 C-6.33 11.34 -6.66 10.68 -7 10 C-6.34 10 -5.68 10 -5 10 C-4.731875 9.278125 -4.46375 8.55625 -4.1875 7.8125 C-3.01017502 5.02409874 -1.60854116 2.55904276 0 0 Z " fill="#111619" transform="translate(202,155)"/>
<path d="M0 0 C0.33 0 0.66 0 1 0 C1 1.65 1 3.3 1 5 C-1.31 5.66 -3.62 6.32 -6 7 C-5.02433888 5.83040013 -4.044375 4.66438823 -3.0625 3.5 C-2.51722656 2.8503125 -1.97195312 2.200625 -1.41015625 1.53125 C-0.71212891 0.77328125 -0.71212891 0.77328125 0 0 Z " fill="#68BBAD" transform="translate(182,63)"/>
<path d="M0 0 C0 -0.66 0 -1.32 0 -2 C0.66 -2 1.32 -2 2 -2 C2.33 -1.01 2.66 -0.02 3 1 C-0.96 1 -4.92 1 -9 1 C-9 0.34 -9 -0.32 -9 -1 C-5.79937313 -2.60031344 -3.27728194 -1.03173691 0 0 Z " fill="#A0A0A0" transform="translate(502,287)"/>
<path d="M0 0 C0.66 0.66 1.32 1.32 2 2 C2.66 1.67 3.32 1.34 4 1 C4 3.31 4 5.62 4 8 C3.01 7.67 2.02 7.34 1 7 C0.67 4.69 0.34 2.38 0 0 Z " fill="#7C7C7C" transform="translate(268,283)"/>
<path d="M0 0 C0.33 0.66 0.66 1.32 1 2 C-3.42243499 4.56786548 -6.51143471 3.71809676 -11.20703125 2.5078125 C-11.79871094 2.34023437 -12.39039063 2.17265625 -13 2 C-13 1.67 -13 1.34 -13 1 C-6.565 0.505 -6.565 0.505 0 0 Z " fill="#646464" transform="translate(494,238)"/>
<path d="M0 0 C0 0.66 0 1.32 0 2 C-5.75 4 -5.75 4 -8 4 C-8 3.01 -8 2.02 -8 1 C-5.29120665 -0.35439668 -2.99066732 -0.06501451 0 0 Z " fill="#6A9B90" transform="translate(156,184)"/>
<path d="M0 0 C0.99 0.33 1.98 0.66 3 1 C-1.5 5 -1.5 5 -6 5 C-6 3.68 -6 2.36 -6 1 C-4.7934375 1.0309375 -4.7934375 1.0309375 -3.5625 1.0625 C-1.06645115 1.29633621 -1.06645115 1.29633621 0 0 Z " fill="#82B7AE" transform="translate(211,144)"/>
<path d="M0 0 C-0.33 0.99 -0.66 1.98 -1 3 C-4.80269732 4.6900877 -7.05272168 5.19873962 -11 4 C-9.73308493 3.32591692 -8.46129251 2.66099503 -7.1875 2 C-6.47980469 1.62875 -5.77210938 1.2575 -5.04296875 0.875 C-3 0 -3 0 0 0 Z " fill="#80C5BC" transform="translate(229,29)"/>
<path d="M0 0 C-1.9626228 2.04795423 -3.4277307 2.94976638 -6.26953125 3.19921875 C-8.51954383 3.18858877 -10.75385562 3.12958525 -13 3 C-13 2.67 -13 2.34 -13 2 C-11.39935157 1.46845258 -9.79431126 0.95011647 -8.1875 0.4375 C-7.29417969 0.14746094 -6.40085937 -0.14257812 -5.48046875 -0.44140625 C-3 -1 -3 -1 0 0 Z " fill="#90D1C6" transform="translate(279,8)"/>
<path d="M0 0 C2.31 0 4.62 0 7 0 C7 0.99 7 1.98 7 3 C4.69 3 2.38 3 0 3 C0 2.01 0 1.02 0 0 Z " fill="#6FBCB0" transform="translate(451,122)"/>
<path d="M0 0 C4.12751449 0.60698743 7.3321148 2.03810791 11 4 C7.79937313 5.60031344 5.27728194 4.03173691 2 3 C2 2.34 2 1.68 2 1 C1.34 0.67 0.68 0.34 0 0 Z " fill="#91CFC4" transform="translate(414,13)"/>
<path d="M0 0 C3.3 0.33 6.6 0.66 10 1 C10.33 1.99 10.66 2.98 11 4 C7.37 3.01 3.74 2.02 0 1 C0 0.67 0 0.34 0 0 Z " fill="#75BDB2" transform="translate(282,124)"/>
<path d="M0 0 C0.78375 0.04125 1.5675 0.0825 2.375 0.125 C-0.15288007 2.92372437 -1.82911134 4.58273019 -5.625 5.125 C-4.41988658 1.50965974 -3.92406511 0.18686024 0 0 Z " fill="#8BD2C7" transform="translate(356.625,106.875)"/>
<path d="M0 0 C4.455 1.98 4.455 1.98 9 4 C9 4.33 9 4.66 9 5 C6.36 4.67 3.72 4.34 1 4 C0.67 2.68 0.34 1.36 0 0 Z " fill="#7FC8BD" transform="translate(447,29)"/>
<path d="M0 0 C3.63 0.33 7.26 0.66 11 1 C11 1.33 11 1.66 11 2 C7.7 2.33 4.4 2.66 1 3 C0.67 2.01 0.34 1.02 0 0 Z " fill="#4EB09F" transform="translate(369,3)"/>
<path d="M0 0 C1.98 0 3.96 0 6 0 C6.66 1.32 7.32 2.64 8 4 C5.36 3.34 2.72 2.68 0 2 C0 1.34 0 0.68 0 0 Z " fill="#545454" transform="translate(389,272)"/>
<path d="M0 0 C5.61 0 11.22 0 17 0 C17 0.33 17 0.66 17 1 C11.39 1 5.78 1 0 1 C0 0.67 0 0.34 0 0 Z " fill="#3C3C3C" transform="translate(520,261)"/>
<path d="M0 0 C1.32 0.33 2.64 0.66 4 1 C3.34 2.98 2.68 4.96 2 7 C0.5393715 4.35261084 0 3.10551666 0 0 Z " fill="#54948B" transform="translate(142,187)"/>
<path d="M0 0 C-0.99 0.495 -0.99 0.495 -2 1 C-2.65213292 3.02463255 -2.65213292 3.02463255 -3 5 C-3.66 5 -4.32 5 -5 5 C-5 4.01 -5 3.02 -5 2 C-5.99 1.67 -6.98 1.34 -8 1 C-5.07175348 0.02391783 -3.04386724 -0.08226668 0 0 Z " fill="#6EB6AF" transform="translate(191,168)"/>
<path d="M0 0 C0.33 0 0.66 0 1 0 C0.67 2.64 0.34 5.28 0 8 C-0.99 8.33 -1.98 8.66 -3 9 C-2.01 6.03 -1.02 3.06 0 0 Z " fill="#7BC3B5" transform="translate(135,132)"/>
<path d="M0 0 C4.29 0 8.58 0 13 0 C13 0.33 13 0.66 13 1 C8.71 1 4.42 1 0 1 C0 0.67 0 0.34 0 0 Z " fill="#000000" transform="translate(379,261)"/>
<path d="M0 0 C0.33 0 0.66 0 1 0 C1 3.63 1 7.26 1 11 C0.67 11 0.34 11 0 11 C0 7.37 0 3.74 0 0 Z " fill="#000000" transform="translate(480,293)"/>
<path d="M0 0 C3.63 0 7.26 0 11 0 C11 0.33 11 0.66 11 1 C7.37 1 3.74 1 0 1 C0 0.67 0 0.34 0 0 Z " fill="#5D5D5D" transform="translate(155,261)"/>
<path d="M0 0 C2.97 0 5.94 0 9 0 C9 0.33 9 0.66 9 1 C6.03 1 3.06 1 0 1 C0 0.67 0 0.34 0 0 Z " fill="#000000" transform="translate(462,261)"/>
<path d="M0 0 C2.64 0 5.28 0 8 0 C8 0.33 8 0.66 8 1 C5.36 1 2.72 1 0 1 C0 0.67 0 0.34 0 0 Z " fill="#101010" transform="translate(316,261)"/>
<path d="M0 0 C2.64 0 5.28 0 8 0 C8 0.33 8 0.66 8 1 C5.36 1 2.72 1 0 1 C0 0.67 0 0.34 0 0 Z " fill="#000000" transform="translate(293,261)"/>
<path d="M0 0 C2.64 0 5.28 0 8 0 C8 0.33 8 0.66 8 1 C5.36 1 2.72 1 0 1 C0 0.67 0 0.34 0 0 Z " fill="#000000" transform="translate(238,261)"/>
<path d="M0 0 C2.64 0 5.28 0 8 0 C8 0.33 8 0.66 8 1 C5.36 1 2.72 1 0 1 C0 0.67 0 0.34 0 0 Z " fill="#101010" transform="translate(177,261)"/>
<path d="M0 0 C0.33 0 0.66 0 1 0 C1 2.31 1 4.62 1 7 C0.67 7 0.34 7 0 7 C0 4.69 0 2.38 0 0 Z " fill="#000000" transform="translate(480,314)"/>
<path d="M0 0 C1.98 0 3.96 0 6 0 C6 0.33 6 0.66 6 1 C4.02 1 2.04 1 0 1 C0 0.67 0 0.34 0 0 Z " fill="#000000" transform="translate(338,370)"/>
<path d="M0 0 C1.98 0 3.96 0 6 0 C6 0.33 6 0.66 6 1 C4.02 1 2.04 1 0 1 C0 0.67 0 0.34 0 0 Z " fill="#151515" transform="translate(443,261)"/>
<path d="M0 0 C1.98 0 3.96 0 6 0 C6 0.33 6 0.66 6 1 C4.02 1 2.04 1 0 1 C0 0.67 0 0.34 0 0 Z " fill="#000000" transform="translate(422,261)"/>
<path d="M0 0 C1.65 0 3.3 0 5 0 C5 0.33 5 0.66 5 1 C3.35 1 1.7 1 0 1 C0 0.67 0 0.34 0 0 Z " fill="#666666" transform="translate(259,370)"/>
<path d="M0 0 C0.33 0 0.66 0 1 0 C1 1.65 1 3.3 1 5 C0.67 5 0.34 5 0 5 C0 3.35 0 1.7 0 0 Z " fill="#191919" transform="translate(252,277)"/>
<path d="M0 0 C1.65 0 3.3 0 5 0 C5 0.33 5 0.66 5 1 C3.35 1 1.7 1 0 1 C0 0.67 0 0.34 0 0 Z " fill="#000000" transform="translate(259,261)"/>
<path d="M0 0 C4 1 4 1 4 1 Z " fill="#000000" transform="translate(394,370)"/>
<path d="M0 0 C4 1 4 1 4 1 Z " fill="#000000" transform="translate(384,370)"/>
<path d="M0 0 C4 1 4 1 4 1 Z " fill="#000000" transform="translate(368,370)"/>
<path d="M0 0 C4 1 4 1 4 1 Z " fill="#000000" transform="translate(358,370)"/>
<path d="M0 0 C4 1 4 1 4 1 Z " fill="#000000" transform="translate(310,370)"/>
<path d="M0 0 C4 1 4 1 4 1 Z " fill="#000000" transform="translate(295,370)"/>
<path d="M0 0 C4 1 4 1 4 1 Z " fill="#000000" transform="translate(286,370)"/>
<path d="M0 0 C4 1 4 1 4 1 Z " fill="#000000" transform="translate(270,370)"/>
<path d="M0 0 C1 4 1 4 1 4 Z " fill="#000000" transform="translate(408,345)"/>
<path d="M0 0 C1 4 1 4 1 4 Z " fill="#000000" transform="translate(466,302)"/>
<path d="M0 0 C1 4 1 4 1 4 Z " fill="#202020" transform="translate(452,268)"/>
<path d="M0 0 C1 4 1 4 1 4 Z " fill="#404040" transform="translate(272,266)"/>
<path d="M0 0 C1 4 1 4 1 4 Z " fill="#000000" transform="translate(480,264)"/>
<path d="M0 0 C3 1 3 1 3 1 Z " fill="#000000" transform="translate(321,370)"/>
<path d="" fill="#555555" transform="translate(0,0)"/>
<path d="" fill="#2A2A2A" transform="translate(0,0)"/>
<path d="" fill="#000000" transform="translate(0,0)"/>
<path d="" fill="#000000" transform="translate(0,0)"/>
<path d="M0 0 C2 1 2 1 2 1 Z " fill="#7F7F7F" transform="translate(416,371)"/>
<path d="M0 0 C2 1 2 1 2 1 Z " fill="#000000" transform="translate(238,370)"/>
<path d="" fill="#000000" transform="translate(0,0)"/>
<path d="" fill="#000000" transform="translate(0,0)"/>
<path d="" fill="#404040" transform="translate(0,0)"/>
<path d="" fill="#000000" transform="translate(0,0)"/>
<path d="" fill="#7F7F7F" transform="translate(0,0)"/>
<path d="" fill="#000000" transform="translate(0,0)"/>
<path d="" fill="#000000" transform="translate(0,0)"/>
<path d="" fill="#000000" transform="translate(0,0)"/>
<path d="M0 0 C2 1 2 1 2 1 Z " fill="#000000" transform="translate(130,260)"/>
<path d="M0 0 C2 1 2 1 2 1 Z " fill="#000000" transform="translate(125,260)"/>
<path d="M0 0 C2 1 2 1 2 1 Z " fill="#000000" transform="translate(152,226)"/>
<path d="M0 0 C2 1 2 1 2 1 Z " fill="#007F00" transform="translate(316,135)"/>
<path d="" fill="#000000" transform="translate(0,0)"/>
<path d="" fill="#000000" transform="translate(0,0)"/>
<path d="" fill="#000000" transform="translate(0,0)"/>
<path d="" fill="#000000" transform="translate(0,0)"/>
<path d="" fill="#000000" transform="translate(0,0)"/>
<path d="" fill="#000000" transform="translate(0,0)"/>
<path d="" fill="#000000" transform="translate(0,0)"/>
<path d="" fill="#000000" transform="translate(0,0)"/>
<path d="" fill="#000000" transform="translate(0,0)"/>
<path d="" fill="#000000" transform="translate(0,0)"/>
<path d="" fill="#FFFFFF" transform="translate(0,0)"/>
<path d="" fill="#FFFFFF" transform="translate(0,0)"/>
<path d="" fill="#000000" transform="translate(0,0)"/>
<path d="" fill="#000000" transform="translate(0,0)"/>
<path d="" fill="#000000" transform="translate(0,0)"/>
<path d="" fill="#000000" transform="translate(0,0)"/>
<path d="" fill="#000000" transform="translate(0,0)"/>
<path d="" fill="#000000" transform="translate(0,0)"/>
<path d="" fill="#FFFFFF" transform="translate(0,0)"/>
<path d="" fill="#000000" transform="translate(0,0)"/>
<path d="" fill="#000000" transform="translate(0,0)"/>
<path d="" fill="#000000" transform="translate(0,0)"/>
<path d="" fill="#FFFFFF" transform="translate(0,0)"/>
<path d="" fill="#000000" transform="translate(0,0)"/>
<path d="" fill="#000000" transform="translate(0,0)"/>
<path d="" fill="#808080" transform="translate(0,0)"/>
<path d="" fill="#000000" transform="translate(0,0)"/>
<path d="" fill="#FFFFFF" transform="translate(0,0)"/>
<path d="" fill="#000000" transform="translate(0,0)"/>
<path d="" fill="#000000" transform="translate(0,0)"/>
<path d="" fill="#000000" transform="translate(0,0)"/>
<path d="" fill="#000000" transform="translate(0,0)"/>
<path d="" fill="#808080" transform="translate(0,0)"/>
<path d="" fill="#000000" transform="translate(0,0)"/>
<path d="" fill="#000000" transform="translate(0,0)"/>
<path d="" fill="#000000" transform="translate(0,0)"/>
<path d="" fill="#FFFFFF" transform="translate(0,0)"/>
</svg>
